HIERARCHY
ROOT Hips
{
  OFFSET -10.0563 7.73376 -472.55
  CHANNELS 6 Xposition Yposition Zposition Zrotation Xrotation Yrotation
  JOINT Spine
  {
    OFFSET 0 0 0
    CHANNELS 3 Zrotation Xrotation Yrotation
    JOINT Spine1
    {
      OFFSET 19 0 0
      CHANNELS 3 Zrotation Xrotation Yrotation
      JOINT Neck
      {
        OFFSET 22.5 0.6 0
        CHANNELS 3 Zrotation Xrotation Yrotation
        JOINT Head
        {
          OFFSET 14 0.0308777 0
          CHANNELS 3 Zrotation Xrotation Yrotation
          End Site
          {
            OFFSET 17 0 0
          }
        }
      }
      JOINT LeftShoulder
      {
        OFFSET 19.8 3.7 4.3
        CHANNELS 3 Zrotation Xrotation Yrotation
        JOINT LeftArm
        {
          OFFSET 8 0 0
          CHANNELS 3 Zrotation Xrotation Yrotation
          JOINT LeftForeArm
          {
            OFFSET 15.2 0 0
            CHANNELS 3 Zrotation Xrotation Yrotation
            JOINT LeftHand
            {
              OFFSET 17.8 0 0
              CHANNELS 3 Zrotation Xrotation Yrotation
              End Site
              {
                OFFSET 7.2 0 0
              }
            }
          }
        }
      }
      JOINT RightShoulder
      {
        OFFSET 19.8 3.7 -4.3
        CHANNELS 3 Zrotation Xrotation Yrotation
        JOINT RightArm
        {
          OFFSET 8 0 0.151654
          CHANNELS 3 Zrotation Xrotation Yrotation
          JOINT RightForeArm
          {
            OFFSET 15.2 0 0
            CHANNELS 3 Zrotation Xrotation Yrotation
            JOINT RightHand
            {
              OFFSET 17.8 0 0
              CHANNELS 3 Zrotation Xrotation Yrotation
              End Site
              {
                OFFSET 7.2 0 0
              }
            }
          }
        }
      }
    }
  }
  JOINT LeftUpLeg
  {
    OFFSET 5.98425 -7.666 4.78879
    CHANNELS 3 Zrotation Xrotation Yrotation
    JOINT LeftLeg
    {
      OFFSET 16 0 0
      CHANNELS 3 Zrotation Xrotation Yrotation
      JOINT LeftFoot
      {
        OFFSET 18 0 0
        CHANNELS 3 Zrotation Xrotation Yrotation
        End Site
        {
          OFFSET 0 -10.8 0
        }
      }
    }
  }
  JOINT RightUpLeg
  {
    OFFSET 5.98425 -7.66598 -4.78879
    CHANNELS 3 Zrotation Xrotation Yrotation
    JOINT RightLeg
    {
      OFFSET 16 0 0
      CHANNELS 3 Zrotation Xrotation Yrotation
      JOINT RightFoot
      {
        OFFSET 18 0 0
        CHANNELS 3 Zrotation Xrotation Yrotation
        End Site
        {
          OFFSET 0 -10.8 0
        }
      }
    }
  }
  JOINT Tail
  {
    OFFSET 6.83696 -0.722574 0
    CHANNELS 3 Zrotation Xrotation Yrotation
    JOINT Tail1
    {
      OFFSET 12 0 0
      CHANNELS 3 Zrotation Xrotation Yrotation
      End Site
      {
        OFFSET 12 0 0
      }
    }
  }
}
MOTION
Frames:	16
Frame Time:	0.0166667
35.0402 43.3644 131.117 0.847246 3.18724 101.651 -176.669 0.596197 1.40338 -6.32809 -2.25077 10.651 -7.75587 0.251767 -1.35898 -114.494 74.8212 126.745 -114.325 -43.3007 -135.812 114.228 -6.59737 -124.96 -47.3508 -65.2956 59.2999 21.1528 2.58232 -31.437 78.6167 -21.8242 33.6617 54.3769 -45.7886 -28.2153 -70.8443 -20.4261 -5.3084 -28.1436 -6.32046 22.0897 -120.003 -5.21294 -10.0302 79.7915 23.6383 6.8485 30.7474 -5.24226 -9.80366 -145.223 3.2869 -1.26004 105.497 -8.1445 -4.48731 24.8936 -1.08782 -1.73588 -5.19475 7.32289 -36.1132 4.69957 -3.23351 -14.2601 
35.5481 44.0456 134.466 -1.35178 2.80737 103.527 -176.329 0.901368 1.21728 -5.6702 -2.73858 14.3265 -7.64799 2.79885 -2.29013 -121.466 74.8691 131.701 -114.056 -44.0771 -134.01 112.998 -1.58703 -122.537 -73.255 -44.6408 31.0319 10.9807 2.49565 -13.7013 79.3862 -20.4809 32.0483 53.8083 -46.8086 -27.9967 -65.9605 -20.0719 -4.89823 -29.5679 -6.11126 20.8759 -115.572 -3.09729 -11.8456 77.5578 23.4738 5.91102 35.9172 -5.37049 -9.60638 -146.352 6.72751 -0.134667 99.0524 -8.50935 -5.65389 26.9139 -0.816642 -1.4497 -5.59208 6.41493 -37.0412 4.11089 -3.31362 -19.7779 
36.0651 44.881 137.913 -3.80188 2.73732 103.97 -176.982 1.22478 -0.919897 -3.78527 -2.88831 18.7413 -8.00818 4.9367 -3.52036 -126.67 74.1741 134.978 -114.007 -44.9721 -132.545 114.084 2.56196 -120.24 -76.3545 -28.7917 22.8655 -0.733801 2.21763 -11.5288 80.0179 -19.4572 30.8896 52.1034 -46.3519 -28.5881 -60.4162 -21.2621 -4.36812 -30.0362 -4.29347 16.4005 -110.822 -2.0327 -14.0252 73.4537 22.2722 5.58673 41.9159 -5.2606 -9.04329 -145.978 10.0182 1.00992 89.5445 -9.99579 -7.89127 31.871 -0.210375 -0.867952 -6.55078 4.83993 -34.6025 3.47661 -3.16578 -25.0681 
36.5838 45.7529 141.393 -6.4159 2.72273 103.269 -178.202 1.74368 -4.36582 -1.37227 -2.50229 23.3266 -8.48538 6.54677 -4.83295 -129.944 73.3385 137.015 -114.123 -45.9616 -131.342 113.716 7.03876 -116.844 -71.077 -25.2287 20.8751 -2.41697 2.21758 -11.4375 80.6343 -18.6946 30.7736 48.7415 -46.2606 -30.4397 -54.5027 -21.7837 -3.22376 -28.1271 -2.08831 11.2479 -105.884 -1.8543 -15.7771 68.6533 19.3444 5.18906 47.9314 -4.75203 -8.06791 -143.827 13.2802 2.11332 78.1673 -12.1394 -11.2885 39.2375 0.828682 -0.0289912 -7.47704 2.12201 -29.8604 3.21968 -3.12642 -28.6063 
37.0974 46.5011 144.783 -8.87562 2.38131 101.814 -179.275 2.23483 -7.6006 0.96023 -1.79573 26.522 -8.85707 7.82017 -6.00391 -131.988 72.4611 138.878 -113.732 -46.689 -129.486 110.968 10.0913 -113.961 -66.8318 -19.468 17.8114 -2.98539 1.56389 -8.33723 81.1056 -18.1411 30.8317 44.8483 -46.1227 -33.2707 -48.7777 -21.5879 -1.63033 -24.2349 0.00900916 5.75745 -100.996 -2.24785 -16.8053 65.182 15.2144 4.53348 52.3095 -3.99862 -7.00819 -139.827 16.0003 2.29488 66.184 -13.1338 -15.2297 46.3324 1.9774 0.731241 -7.46135 -1.74575 -24.0374 3.45917 -3.33381 -29.5284 
37.56 47.0177 147.995 -10.7667 1.69328 100.268 -179.964 2.50883 -9.07782 2.9485 -0.979148 26.8164 -9.31574 8.44139 -6.23038 -132.828 71.8451 140.14 -113.045 -46.8049 -127.869 111.31 9.011 -115.08 -64.0921 -15.1244 14.1394 -5.96209 2.17396 -11.5717 81.2282 -17.9939 30.8324 42.1595 -45.1277 -36.3929 -44.2264 -19.7756 0.107232 -17.838 1.83251 -0.780946 -97.5509 -2.81317 -17.3751 65.1203 11.003 3.82245 54.4604 -3.32783 -6.2208 -135.307 17.769 1.819 55.7899 -12.3835 -18.3928 51.9388 2.87573 1.17593 -6.26091 -5.83806 -18.4456 4.07932 -3.48566 -27.7493 
37.8885 47.2713 151.016 -11.7069 0.76889 98.9599 179.846 2.42797 -9.03749 4.44199 -0.382781 24.7325 -9.97746 8.36575 -5.21204 -132.823 71.7677 141.03 -112.71 -46.5026 -127.565 116.21 5.64958 -118.156 -61.6094 -11.765 10.3711 -5.66669 2.1506 -11.3842 80.9175 -18.4183 31.0951 42.6709 -42.1379 -38.3948 -43.3026 -16.51 1.07507 -8.20209 3.22954 -10.6553 -95.9614 -3.43484 -17.4143 67.3876 8.68173 3.12358 55.8197 -2.93818 -5.77294 -132.503 18.0013 0.739456 49.0065 -10.051 -19.3416 56.0421 3.18424 1.09526 -4.20558 -9.08357 -13.6084 4.88057 -3.18645 -24.1864 
38.0405 47.1883 153.915 -11.6764 -0.174893 97.9275 -179.912 2.08501 -8.61613 5.27699 -0.176834 22.0606 -10.7051 7.82492 -3.68587 -131.718 71.7296 141.681 -112.606 -45.9508 -128.104 122.542 0.92115 -120.909 -58.2037 -5.4505 6.23272 -5.31607 1.32119 -8.05557 80.4162 -19.1714 31.8042 46.2065 -40.985 -37.6587 -51.2568 -9.74804 0.824486 6.27131 1.674 -20.482 -96.2732 -3.93139 -16.909 71.5833 8.01545 2.25275 56.7085 -2.70796 -5.48296 -132.022 16.1972 -0.85069 47.3131 -7.25528 -17.0308 58.5523 2.91278 0.576989 -1.79392 -11.1571 -9.65891 5.70642 -2.33855 -19.9401 
38.0581 46.753 156.812 -11.383 -0.964116 97.0798 -179.464 1.81969 -8.22824 5.39006 -0.0787423 19.631 -11.485 6.98527 -2.04132 -130.111 72.0307 142.05 -112.559 -45.349 -128.848 129.335 -6.32063 -122.776 -54.9164 3.01052 2.32666 -10.8276 1.73826 -10.536 79.7367 -20.2753 33.0217 46.8795 -43.6326 -36.2795 -61.3942 -0.736433 0.556114 23.4212 -3.0724 -25.9307 -98.7666 -4.15701 -16.6241 78.0414 7.44631 1.33602 55.6284 -2.45752 -5.18755 -133.034 12.8261 -3.04473 48.4657 -6.71232 -13.1332 59.5845 2.5617 0.0778855 0.230153 -12.279 -6.25333 6.68419 -1.27878 -15.4263 
38.0377 46.0923 159.75 -10.9507 -1.38079 96.3653 -178.733 1.59831 -7.693 4.59265 -0.0727202 17.1457 -12.1828 6.05023 -0.502173 -128.286 72.3251 141.849 -112.305 -44.3287 -129.756 132.322 -13.9957 -124.237 -55.2144 9.91194 1.26809 -17.7925 2.99837 -14.8027 78.7 -21.8718 34.2457 44.4744 -46.4198 -35.5732 -70.4982 8.37529 -0.582009 39.3402 -8.34772 -27.971 -103.058 -4.37838 -16.7049 85.6518 7.02843 0.59395 51.7473 -2.25348 -4.9054 -134.13 9.84861 -5.28319 51.5545 -5.5247 -9.16526 59.6837 2.03787 -0.501828 1.58639 -12.6988 -2.8375 7.67038 -0.152908 -10.7836 
38.081 45.2783 162.667 -10.2649 -1.4742 95.5609 -177.992 1.33854 -6.95422 3.19255 -0.0961354 14.1675 -12.5318 4.86096 1.22712 -126.075 72.3189 140.333 -111.958 -42.4174 -131.868 130.821 -19.7534 -126.454 -60.0009 11.5901 3.05778 -20.9458 4.20458 -18.0143 77.3784 -23.9586 35.6949 45.1434 -46.4347 -33.8066 -79.644 14.8205 -2.74474 49.1747 -12.1987 -30.1697 -108.811 -4.57325 -16.4671 94.0172 6.95595 -0.0201973 44.7854 -2.2263 -4.77605 -134.473 9.17681 -5.6418 57.9435 -5.47639 -8.08306 54.075 1.59664 -0.523224 2.50275 -12.5282 0.945606 8.36362 1.08494 -6.27882 
38.1887 44.3981 165.514 -9.38285 -1.34497 94.5857 -177.358 1.16737 -6.45256 1.38965 -0.021968 11.4038 -12.0702 3.50676 2.83854 -124.092 72.269 137.574 -111.49 -39.6507 -135.314 128.413 -24.6251 -129.535 -64.2091 13.4433 4.52968 -24.284 5.92179 -22.255 76.0171 -26.4067 37.7967 48.342 -42.8042 -32.6977 -87.6086 19.9615 -5.88394 53.5258 -14.7397 -33.1612 -115.512 -4.41218 -15.6189 102.175 7.83683 -0.572982 36.8903 -2.42302 -4.91769 -134.119 9.92531 -4.98488 66.5204 -6.07529 -8.0406 44.6465 1.14241 -0.319177 2.85225 -11.6777 4.94892 8.75029 2.05089 -2.01009 
38.3233 43.5814 168.352 -8.61856 -1.18391 93.5818 -176.479 1.277 -5.97752 -0.925628 0.366902 8.84013 -11.3151 2.33346 3.90512 -122.487 72.2946 135.126 -110.845 -36.4731 -139.546 124.644 -28.6491 -133.749 -67.8084 14.9459 6.31736 -28.1474 7.25677 -24.586 74.8133 -29.1032 40.6978 52.1839 -37.2389 -34.2008 -93.7316 29.6967 -9.75731 57.0713 -13.4196 -25.4406 -122.484 -3.57936 -14.3924 109.024 9.68372 -1.07392 29.6368 -2.68398 -5.1803 -132.178 10.6472 -4.80042 73.6128 -5.58718 -7.96485 36.0279 0.671948 -0.304299 2.42909 -10.3152 8.48888 9.03234 2.33158 2.2362 
38.4549 42.8558 171.206 -7.86211 -0.467143 92.2783 -176.024 1.42544 -5.1248 -3.32547 0.992898 5.48011 -10.4168 1.1766 5.05941 -121.086 72.8965 133.305 -109.747 -33.2906 -143.189 120.628 -32.0433 -138.317 -69.592 14.901 8.02841 -32.3382 8.92312 -26.6791 73.6975 -31.8675 43.5395 56.5741 -30.1676 -37.461 -96.8293 39.6064 -14.2843 55.3145 -9.8266 -16.3265 -130.452 -2.59474 -12.7992 114.469 11.9455 -1.41994 23.5773 -2.83829 -5.27696 -129.802 11.1754 -2.9489 77.7645 -7.77083 -8.86876 30.2815 0.795192 0.281187 0.859432 -8.44492 11.6904 9.34321 1.82424 6.39323 
38.5572 42.386 174.031 -7.09452 0.45275 90.3414 -175.986 1.55208 -4.49893 -5.53925 1.87192 1.60963 -9.35065 0.0390739 6.02159 -119.469 73.4118 131.409 -107.901 -29.8739 -145.852 119.04 -35.454 -143.305 -69.1486 15.2265 9.1481 -35.3533 10.3679 -28.4663 72.6426 -34.2984 45.4394 60.4724 -21.9551 -41.0292 -95.8827 41.487 -18.484 46.9674 -7.01494 -12.9832 -138.663 -2.04465 -11.4207 117.599 14.5994 -1.41872 19.2764 -2.8398 -5.08008 -127.943 10.6208 -0.586057 81.045 -11.0509 -9.49309 27.4948 1.28495 1.18203 -1.5883 -6.31966 14.9654 9.41865 0.590837 10.4243 
38.6157 42.3376 176.792 -6.35472 0.695125 87.673 -175.022 1.73411 -4.13809 -7.26892 3.23756 -3.08946 -8.51046 -1.21822 7.01172 -117.801 73.3994 128.736 -106.313 -27.1499 -148.038 118.228 -38.3861 -147.573 -67.5329 15.8374 9.40848 -36.7838 10.8253 -28.7507 72.2027 -35.7936 47.0745 63.0913 -12.956 -44.5755 -93.4859 34.6963 -20.2073 35.1036 -4.66266 -14.7869 -144.333 -2.39398 -11.3312 117.355 17.3486 -1.01047 15.935 -2.80431 -4.90676 -125.159 8.38743 -0.495423 83.235 -12.7858 -8.22936 27.1384 1.61645 1.65194 -3.40157 -4.44541 18.4441 9.00249 -1.06674 14.1743 
